HIERARCHY
ROOT Hips
{
	OFFSET 0.000000 0.000000 0.000000
	CHANNELS 6 Xposition Yposition Zposition Zrotation Yrotation Xrotation 
	JOINT LHipJoint
	{
		OFFSET 0.000000 0.000000 0.000000
		CHANNELS 3 Zrotation Yrotation Xrotation
		JOINT LeftUpLeg
		{
			OFFSET 1.363060 -1.794630 0.839290
			CHANNELS 3 Zrotation Yrotation Xrotation
			JOINT LeftLeg
			{
				OFFSET 2.448110 -6.726130 0.000000
				CHANNELS 3 Zrotation Yrotation Xrotation
				JOINT LeftFoot
				{
					OFFSET 2.562200 -7.039590 0.000000
					CHANNELS 3 Zrotation Yrotation Xrotation
					JOINT LeftToeBase
					{
						OFFSET 0.157640 -0.433110 2.322550
						CHANNELS 3 Zrotation Yrotation Xrotation
						End Site
						{
							OFFSET 0.000000 0.000000 0.000000
						}
					}
				}
			}
		}
	}
	JOINT RHipJoint
	{
		OFFSET 0.000000 0.000000 0.000000
		CHANNELS 3 Zrotation Yrotation Xrotation
		JOINT RightUpLeg
		{
			OFFSET -1.305520 -1.794630 0.839290
			CHANNELS 3 Zrotation Yrotation Xrotation
			JOINT RightLeg
			{
				OFFSET -2.542530 -6.985550 0.000000
				CHANNELS 3 Zrotation Yrotation Xrotation
				JOINT RightFoot
				{
					OFFSET -2.568260 -7.056230 0.000000
					CHANNELS 3 Zrotation Yrotation Xrotation
					JOINT RightToeBase
					{
						OFFSET -0.164730 -0.452590 2.363150
						CHANNELS 3 Zrotation Yrotation Xrotation
						End Site
						{
							OFFSET 0.000000 0.000000 0.000000
						}
					}
				}
			}
		}
	}
}
MOTION
Frames: 25
Frame Time: 0.008333
0.457626 17.731823 -1.096961 -147.324952 82.602472 -116.497379 -13.110126 1.105028 -1.158977 -9.007812 0.511836 -13.679578 -0.714889 0.221836 14.762866 1.668556 11.744386 3.909437 2.411900 0.000000 -32.409100 6.123258 0.061498 2.851281 2.937491 9.549078 -47.510395 2.803740 0.145736 12.031309 -0.505510 -3.515830 5.688688 -1.803800 0.000000 -58.087900
0.709142 17.719972 -1.101985 -147.874346 82.575396 -117.234037 -13.147101 1.176972 -1.469161 -9.187974 1.305331 -13.374110 -0.644949 0.371851 16.852362 1.859105 12.969670 3.720222 2.612500 0.000000 -29.148800 6.119431 0.121252 2.927684 2.673428 9.528511 -47.004464 2.993890 0.420637 9.321146 -0.195369 -2.263253 6.797172 -1.515600 0.000000 -58.486699
0.959628 17.697132 -1.105893 -148.370907 82.577072 -117.986222 -13.176623 1.254033 -1.793844 -9.377862 2.164573 -13.174814 -0.585935 0.548048 19.379726 2.038405 14.079741 3.386221 2.747600 -0.000000 -26.555000 6.139284 0.188322 2.954150 2.467493 9.447611 -46.559929 3.131094 0.611204 7.327095 0.059825 -1.162723 7.753004 -1.222800 -0.000000 -58.882800
1.208972 17.663046 -1.108323 -148.824727 82.614033 -118.762683 -13.195576 1.339301 -2.128944 -9.577889 3.056347 -13.053907 -0.533890 0.751211 22.293746 2.203781 15.076879 2.963273 2.824699 0.000000 -24.632800 6.183792 0.255052 2.933915 2.315909 9.314829 -46.187576 3.217935 0.712763 6.078415 0.259192 -0.223823 8.497630 -0.941900 0.000000 -59.253400
1.457762 17.617010 -1.109968 -149.057986 82.658953 -119.355210 -13.222965 1.424342 -2.471407 -9.727074 4.003714 -13.066263 -0.483229 0.982850 25.601102 2.346335 15.912415 2.472068 2.835300 0.000000 -23.342500 6.233299 0.298749 2.904885 2.198579 9.245529 -45.878506 3.251918 0.743232 5.459914 0.387172 0.416218 9.065761 -0.735800 0.000000 -59.702700
1.706106 17.558395 -1.110617 -149.107457 82.714862 -119.796392 -13.255154 1.512006 -2.810801 -9.833360 4.957907 -13.182970 -0.426560 1.240110 29.234138 2.469104 16.622405 1.948296 2.797300 0.000000 -22.561500 6.289936 0.319728 2.866946 2.109969 9.228546 -45.645252 3.238434 0.702788 5.483578 0.453101 0.791809 9.401965 -0.603801 -0.000000 -60.147300
1.954457 17.486517 -1.110843 -148.891431 82.764770 -119.987321 -13.300904 1.597942 -3.137661 -9.871069 5.900656 -13.413298 -0.355924 1.519477 33.149794 2.572939 17.219399 1.403907 2.718600 0.000000 -22.145700 6.343364 0.311949 2.834223 2.050013 9.301057 -45.488165 3.181924 0.603056 6.086470 0.459078 0.888089 9.499955 -0.559500 -0.000000 -60.593300
2.203334 17.400902 -1.111094 -148.392919 82.797428 -119.894156 -13.363115 1.680742 -3.438208 -9.836518 6.798546 -13.761035 -0.264222 1.815387 37.293820 2.662143 17.735362 0.845121 2.610000 0.000000 -21.946000 6.388974 0.276445 2.812695 2.030130 9.457615 -45.434073 3.090676 0.450521 7.249181 0.415161 0.757236 9.324651 -0.587900 0.000000 -61.001500
2.452949 17.301455 -1.111910 -147.619008 82.803862 -119.516921 -13.442357 1.760009 -3.701635 -9.733756 7.621391 -14.213127 -0.145925 2.121995 41.603082 2.742315 18.207632 0.273120 2.481300 0.000000 -21.831400 6.424740 0.219197 2.797527 2.076106 9.664423 -45.503282 2.975734 0.248978 8.967988 0.335747 0.491372 8.828578 -0.655000 -0.000000 -61.330700
2.703454 17.188545 -1.113754 -146.625618 82.778863 -118.904966 -13.536294 1.837236 -3.917813 -9.579642 8.341928 -14.760382 0.002229 2.433698 46.019190 2.819184 18.671961 -0.317641 2.338800 0.000000 -21.693000 6.452924 0.149498 2.780729 2.211637 9.869558 -45.726044 2.848346 -0.000327 11.252867 0.237609 0.202248 7.959889 -0.717500 0.000000 -61.532100
2.954657 17.063136 -1.117543 -145.388725 82.707971 -118.030604 -13.649626 1.909273 -4.084340 -9.365076 8.957613 -15.396547 0.181951 2.746643 50.494346 2.895643 19.143667 -0.940144 2.181300 0.000000 -21.453400 6.469149 0.071626 2.758294 2.459313 10.057517 -46.099680 2.717130 -0.290325 14.056600 0.130044 -0.054971 6.712023 -0.751899 0.000000 -61.664300
3.206293 16.926649 -1.123141 -144.091408 82.602316 -117.073637 -13.772360 1.982426 -4.195896 -9.135196 9.444907 -16.108960 0.392864 3.057106 54.977535 2.976370 19.650781 -1.596871 2.012000 -0.000000 -21.085200 6.487543 0.000553 2.716782 2.814333 10.154388 -46.650037 2.588307 -0.622913 17.391785 0.029986 -0.173216 5.048271 -0.722801 0.000000 -61.646500
3.457658 16.781195 -1.131097 -142.764397 82.456739 -116.064707 -13.906408 2.054158 -4.258175 -8.889281 9.812701 -16.889849 0.634321 3.363630 59.431590 3.061486 20.189869 -2.292495 1.827700 -0.000000 -20.598000 6.509082 -0.059752 2.653902 3.268187 10.159411 -47.347873 2.463482 -0.987558 21.165813 -0.059811 -0.151272 3.013519 -0.636900 0.000000 -61.552300
3.707891 16.629450 -1.141338 -141.527911 82.279997 -115.122754 -14.046637 2.125172 -4.277487 -8.650603 10.061245 -17.728703 0.904946 3.664767 63.818729 3.150889 20.756394 -3.017713 1.629100 -0.000000 -20.045601 6.542533 -0.102573 2.566913 3.790011 10.059608 -48.161793 2.341669 -1.373581 25.282113 -0.136692 0.011664 0.660819 -0.507000 -0.000000 -61.384500
3.955862 16.474688 -1.154107 -140.422152 82.073930 -114.288625 -14.192692 2.191300 -4.265683 -8.419892 10.204588 -18.616422 1.203098 3.959912 68.105937 3.241809 21.327667 -3.758007 1.417500 0.000000 -19.497600 6.589151 -0.128583 2.458944 4.353462 9.876046 -49.032074 2.221827 -1.764135 29.589071 -0.204656 0.271080 -1.914724 -0.360400 0.000000 -61.220200
4.200383 16.320575 -1.169653 -139.462233 81.839397 -113.579781 -14.344179 2.246938 -4.236187 -8.192112 10.260246 -19.544012 1.526515 4.248561 72.261441 3.329943 21.871053 -4.495785 1.195800 -0.000001 -19.006700 6.647511 -0.142168 2.334350 4.938095 9.637112 -49.889720 2.104492 -2.142399 33.922951 -0.269150 0.576000 -4.609441 -0.221300 0.000001 -61.122900
4.440266 16.170960 -1.188306 -138.641211 81.576833 -112.993109 -14.500735 2.285932 -4.202008 -7.958156 10.247702 -20.502839 1.872067 4.530021 76.253144 3.410086 22.348951 -5.211792 0.969400 0.000000 -18.612400 6.713642 -0.150230 2.196896 5.531684 9.371410 -50.664079 1.991962 -2.494328 38.125983 -0.335641 0.878663 -7.323756 -0.104500 0.000000 -61.139900
4.674552 16.029662 -1.210358 -137.940193 81.287723 -112.515693 -14.661040 2.302474 -4.174308 -7.708800 10.186801 -21.485641 2.235379 4.803118 80.047521 3.476802 22.723708 -5.887215 0.745600 0.000000 -18.339300 6.782631 -0.160242 2.048900 6.127431 9.102515 -51.288950 1.887199 -2.809960 42.058390 -0.408588 1.138598 -9.964926 -0.014200 0.000000 -61.342800
4.902517 15.900128 -1.236089 -137.337675 80.974993 -112.133645 -14.822179 2.292099 -4.161519 -7.437536 10.096345 -22.486595 2.610612 5.066234 83.612260 3.524927 22.961207 -6.512839 0.530300 0.000000 -18.165100 6.849926 -0.178329 1.891599 6.719513 8.847300 -51.708050 1.793524 -3.083266 45.610317 -0.491334 1.325154 -12.464149 0.054700 -0.000000 -61.708800
5.123845 15.785208 -1.265565 -136.820625 80.644814 -111.841091 -14.979239 2.252229 -4.168409 -7.145258 9.991527 -23.502601 2.990304 5.316930 86.915522 3.550559 23.037681 -7.085757 0.328100 -0.000000 -18.056400 6.912624 -0.208286 1.726391 7.298295 8.615383 -51.877762 1.713813 -3.310894 48.699825 -0.586002 1.415232 -14.769817 0.113000 0.000001 -62.199400
5.338632 15.687097 -1.298671 -136.389788 80.306994 -111.645157 -15.125143 2.182443 -4.195942 -6.841025 9.883450 -24.533415 3.365304 5.551883 89.926750 3.551555 22.942896 -7.608360 0.141900 -0.000000 -17.982400 6.970149 -0.251257 1.556129 7.848413 8.410519 -51.769285 1.650146 -3.491167 51.270259 -0.693679 1.391041 -16.844207 0.173700 -0.000001 -62.808000
5.547425 15.607046 -1.335200 -136.048681 79.971272 -111.551999 -15.252327 2.083740 -4.242065 -6.539034 9.779833 -25.583422 3.725250 5.767411 92.620943 3.527693 22.680532 -8.094676 -0.029799 0.000000 -17.880400 7.023012 -0.306340 1.385592 8.350889 8.235714 -51.370435 1.604515 -3.623905 53.294884 -0.814893 1.243193 -18.677672 0.249801 -0.000000 -63.348900
5.751169 15.545640 -1.374610 -135.817790 79.651660 -111.581404 -15.352067 1.959004 -4.301599 -6.260086 9.684045 -26.660413 4.058766 5.959287 94.976255 3.481079 22.270457 -8.558162 -0.188900 -0.000000 -17.728800 7.073967 -0.370695 1.221621 8.783720 8.091775 -50.685294 1.577295 -3.709947 54.767161 -0.949165 0.967427 -20.264917 0.350900 -0.000000 -63.781900
5.951043 15.502773 -1.416494 -135.719783 79.359435 -111.752317 -15.416082 1.812319 -4.366724 -6.028999 9.595067 -27.774415 4.354349 6.122966 96.976240 3.415909 21.745964 -9.013658 -0.338599 0.000000 -17.511100 7.126984 -0.440592 1.072732 9.123629 7.978977 -49.733375 1.567593 -3.751426 55.701576 -1.094717 0.568126 -21.607594 0.482400 -0.000000 -64.058000
6.148497 15.477759 -1.460426 -135.776530 79.104185 -112.077207 -15.438194 1.647738 -4.428759 -5.867610 9.509709 -28.938852 4.601301 6.254608 98.611025 3.337874 21.148720 -9.476247 -0.482701 -0.000000 -17.225900 7.185466 -0.512277 0.947744 9.352893 7.900616 -48.548883 1.573292 -3.751698 56.133653 -1.248863 0.058832 -22.717168 0.644500 -0.000000 -64.117199
